<?xml version="1.0" encoding="UTF-8" standalone="no"?><!DOCTYPE svg PUBLIC "-//W3C//DTD SVG 1.1//EN" "http://www.w3.org/Graphics/SVG/1.1/DTD/svg11.dtd"><svg width="100%" height="100%" viewBox="0 0 80 80" version="1.1" xmlns="http://www.w3.org/2000/svg" xmlns:xlink="http://www.w3.org/1999/xlink" xml:space="preserve" xmlns:serif="http://www.serif.com/" style="fill-rule:evenodd;clip-rule:evenodd;stroke-linejoin:round;stroke-miterlimit:2;"><path d="M22.67,25.592c-3.253,3.906 -5.211,8.93 -5.211,14.408c-0,12.441 10.1,22.541 22.541,22.541c6.289,0 11.979,-2.581 16.069,-6.74c0.255,0.194 2.176,1.596 4.392,1.678c2.713,0.102 4.674,-0.701 6.103,-1.324l-0,-2.57c-0.001,-0.004 -1.984,-0.004 -2.129,-0.004c-2.432,0.012 -4.026,-1.968 -4.506,-3.046c1.668,-3.145 2.612,-6.73 2.612,-10.535c0,-3.906 -0.995,-7.581 -2.746,-10.785c-0,0 1.099,-0.896 1.324,-1.338c0.07,-0.137 0.056,-0.958 0.872,-1.58c0.56,-0.428 2.315,-0.294 3.073,-0.626c0.571,-0.25 2.093,-1.614 2.093,-1.614c-0,0 0.744,-0.644 2.07,-1.387c0.244,-0.137 1.402,0.183 1.632,-0.079c0.116,-0.133 0.39,-1.044 0.89,-1.275c0.23,-0.107 1.527,0.482 1.929,0.642c0.467,0.186 1.846,-0.322 1.991,-0.068c2.426,4.239 4.331,11.593 4.331,18.11c-0,3.871 -0.551,7.615 -1.579,11.157c-0.196,0.673 -0.811,1.422 -1.178,1.615c-0.18,0.094 -1.122,-0.465 -1.529,0.282c-0.267,0.492 -0.043,1.304 0.335,1.789c0.354,0.456 0.86,0.594 0.769,0.807c-5.118,12.013 -15.947,21.018 -29.067,23.598c-0.261,0.051 -0.847,-0.451 -1.498,-0.951c-0.378,-0.29 -0.812,-0.376 -1.13,-0.88c-0.289,-0.458 -0.274,-1.259 -0.486,-1.828c-0.18,-0.487 0.36,-1.471 0.2,-1.968c-0.266,-0.83 -0.029,-1.953 -0.306,-2.61c-0.276,-0.655 -0.991,-0.62 -1.215,-0.984c-0.24,-0.39 -1.153,-0.1 -1.234,-0.006c-0.297,0.349 -0.603,2.92 -0.625,2.991c-0.123,0.395 0.282,2.034 0.276,2.114c-0.038,0.438 -0.512,1.737 -0.953,1.741c-0.124,0.001 -1.063,1.427 -1.187,1.427c-0.141,-0 0.126,1.705 -0.014,1.704c-9.545,-0.094 -18.433,-3.372 -25.116,-9.219c-0.149,-0.13 0.284,-1.353 0.142,-1.579c-0.013,-0.02 -0.546,-0.484 -0.609,-0.533c-0.372,-0.292 -1.535,0.343 -1.632,0.24c-7.246,-7.654 -12.364,-17.546 -12.364,-28.907c-0,-5.543 1.4,-12.175 3.172,-15.625c0.248,-0.484 2.372,-1.153 3.207,-0.918c0.332,0.093 5.268,3.553 5.788,2.922c0.075,-0.092 0.695,-0.184 1.111,-0.519c0.373,-0.301 0.559,-0.836 0.429,-1.096c-0.471,-0.941 -1.874,-2.233 -3.105,-3.181c-0.993,-0.766 -1.721,-0.806 -1.994,-1.534c-0.191,-0.509 -0.139,-1.38 -0.446,-1.946c-0.334,-0.616 -1.019,-0.908 -1.009,-0.924c4.862,-7.466 12.561,-12.846 21.283,-15.479c0.567,-0.171 0.196,0.999 2.183,0.92c0.999,-0.04 0.589,-1.653 1.122,-1.765c2.666,-0.56 5.428,-0.855 8.259,-0.855c5.457,-0 12.427,1.707 15.403,3.078c0.27,0.124 -0.027,2.675 -0.016,3.055c0,-0 -1.194,0.136 -1.954,0.585c-1.07,0.633 -2.182,1.602 -3.004,2.199c-1.072,0.777 -2.909,2.132 -2.513,3.026c0.271,0.61 0.25,1.423 0.243,1.694c-0.036,1.287 -0.648,2.42 -0.881,2.902c-0.457,0.944 0.073,2.182 -0.253,2.038c-2.129,-0.939 -4.572,-1.118 -7.025,-1.118c-4.839,-0 -9.325,1.528 -13.001,4.129c-2.169,-0.644 -6.062,-0.131 -7.376,0.595c-1.434,0.793 -0.275,2.73 0.162,2.835c0.023,0.005 0.048,0.021 0.074,0.015c0.638,-0.148 2.003,-0.01 2.811,0.559Zm-2.347,-2.297c0.361,-0.092 2.295,-0.714 4.165,-0.684c1.412,0.022 3.001,0.332 4.305,0.995c2.607,1.349 4.432,3.96 6.284,7.024l0.146,0.277l6.939,11.722l10.195,-17.153l0.309,-0l3.947,18.982c0.778,4.116 1.932,6.975 3.464,8.575c1.212,1.258 2.756,1.887 4.631,1.887l0.515,-0l-0,0.343c-1.418,0.594 -2.537,0.892 -4.536,0.888c-2.326,-0.004 -4.935,-1.977 -6.526,-3.964c-1.796,-2.241 -3.493,-5.894 -4.248,-9.484l-1.578,-7.237c0,-0 -8.139,13.622 -8.289,14.24l-0.309,-0l-8.272,-14.163l-4.676,11.36l3.395,1.674l-0,0.307l-6.959,-0.001l0,-0.306l1.874,-1.674l5.359,-13.083c-1.167,-2.035 -3.469,-5.929 -4.887,-7.507c-1.623,-1.784 -3.247,-2.676 -4.87,-2.676l-0.275,0c-0,0 -0.219,-0.313 -0.103,-0.342Z" style="fill:#4c0d0a;fill-rule:nonzero;"/></svg>