<svg width="19" height="19" viewBox="0 0 19 19" fill="none" xmlns="http://www.w3.org/2000/svg">
<rect y="9.68655" width="13" height="13" transform="rotate(-45 0 9.68655)" fill="#EA4335"/>
<path d="M8.79234 11.5985C8.68567 11.5985 8.63233 11.5452 8.63233 11.4385L8.48834 4.27055C8.48834 4.16388 8.54167 4.11055 8.64833 4.11055H9.86434C9.971 4.11055 10.0243 4.16388 10.0243 4.27055L9.89634 11.4385C9.89634 11.5452 9.843 11.5985 9.73634 11.5985H8.79234ZM9.19234 15.2625C8.89367 15.2625 8.64833 15.1665 8.45633 14.9745C8.26433 14.7825 8.16833 14.5372 8.16833 14.2385C8.16833 13.9399 8.26433 13.6945 8.45633 13.5025C8.64833 13.3105 8.89367 13.2145 9.19234 13.2145C9.491 13.2145 9.73634 13.3105 9.92834 13.5025C10.1203 13.6945 10.2163 13.9399 10.2163 14.2385C10.2163 14.5372 10.1203 14.7825 9.92834 14.9745C9.73634 15.1665 9.491 15.2625 9.19234 15.2625Z" fill="white"/>
</svg>
